<?xml version="1.0" encoding="UTF-8" standalone="no"?>
<svg width="84px" height="69px" viewBox="0 0 84 69" version="1.1" xmlns="http://www.w3.org/2000/svg" xmlns:xlink="http://www.w3.org/1999/xlink" xmlns:sketch="http://www.bohemiancoding.com/sketch/ns">
    <!-- Generator: Sketch 3.1.1 (8761) - http://www.bohemiancoding.com/sketch -->
    <title>Slice 2</title>
    <desc>Created with Sketch.</desc>
    <defs></defs>
    <g id="Page-1" stroke="none" stroke-width="1" fill="none" fill-rule="evenodd" sketch:type="MSPage">
        <g id="heart" sketch:type="MSLayerGroup" transform="translate(34.000000, 25.000000)" fill="#ED2027">
            <path d="M15.5207792,1.25373134 C14.7038961,0.425373134 13.5337662,-0.0447761194 12.3857143,-0.0447761194 C11.2155844,-0.0447761194 10.0454545,0.425373134 9.25064935,1.25373134 C8.8974026,1.6119403 8.67662338,1.97014925 8.43376623,2.30597015 C8.19090909,1.94776119 7.97012987,1.58955224 7.61688312,1.25373134 C6.8,0.425373134 5.62987013,-0.0447761194 4.48181818,-0.0447761194 C3.31168831,-0.0447761194 2.14155844,0.425373134 1.34675325,1.25373134 C0.52987013,2.08208955 0.0662337662,3.26865672 0.0662337662,4.43283582 C0.0662337662,5.61940299 0.52987013,6.80597015 1.34675325,7.6119403 L7.74935065,14.5746269 C7.99220779,14.8208955 8.21298701,14.9328358 8.56623377,14.9328358 C8.91948052,14.9328358 9.14025974,14.8208955 9.38311688,14.5746269 L15.7857143,7.6119403 C16.6025974,6.78358209 17.0662338,5.59701493 17.0662338,4.43283582 C16.9337662,3.24626866 16.4701299,2.19402985 15.5207792,1.25373134 L15.5207792,1.25373134 Z" id="Shape" sketch:type="MSShapeGroup"></path>
        </g>
    </g>
</svg>